#N canvas 1369 760 751 545 10;
#X obj 333 110 openpanel;
#X msg 333 148 open \$1;
#X obj 330 204 readsf~;
#X obj 325 266 dac~;
#X obj 338 63 bng 15 250 50 0 empty empty empty 17 7 0 10 -262144 -1
-1;
#X msg 433 136 1;
#X obj 321 233 cj_lp~;
#X floatatom 130 325 5 0 0 0 - - -, f 5;
#X msg 208 159 CutOff \$1;
#X text 371 61 1 Hier klicken um eine .wav auszuwaelen;
#X text 475 136 2 Hier klicken um Audio zu starten;
#X text 172 320 3 Draufklicken und Maus bewegen um cut-off Frequenz
zu ändern;
#X connect 0 0 1 0;
#X connect 1 0 2 0;
#X connect 2 0 6 0;
#X connect 4 0 0 0;
#X connect 5 0 2 0;
#X connect 6 0 3 0;
#X connect 6 0 3 1;
#X connect 7 0 8 0;
#X connect 8 0 6 0;
