#N canvas 635 85 938 602 10;
#X obj 515 125 openpanel;
#X msg 515 163 open \$1;
#X obj 512 219 readsf~;
#X obj 375 468 dac~;
#X obj 525 78 bng 15 250 50 0 empty empty empty 17 7 0 10 -262144 -1
-1;
#X msg 615 151 1;
#X msg 615 151 1;
#X obj 441 297 combFilter~;
#X msg 545 264 damping \$1;
#X msg 547 303 delay \$1;
#X msg 548 342 feedback \$1;
#X floatatom 648 267 5 0 0 0 - - -, f 5;
#X floatatom 656 303 5 0 0 0 - - -, f 5;
#X floatatom 656 341 5 0 0 0 - - -, f 5;
#X obj 324 296 combFilter~;
#X msg 246 226 damping \$1;
#X msg 191 268 delay \$1;
#X msg 171 319 feedback \$1;
#X floatatom 245 184 5 0 0 0 - - -, f 5;
#X floatatom 185 217 5 0 0 0 - - -, f 5;
#X floatatom 138 285 5 0 0 0 - - -, f 5;
#X obj 70 231 vsl 15 128 0 0.98 0 0 empty empty empty 0 -9 0 10 -262144
-1 -1 0 1;
#X obj 103 68 vsl 15 128 1000 9000 0 0 empty empty empty 0 -9 0 10
-262144 -1 -1 0 1;
#X obj 226 28 vsl 15 128 0 0.9 0 0 empty empty empty 0 -9 0 10 -262144
-1 -1 0 1;
#X obj 694 219 hsl 128 15 0 0.9 0 0 empty empty empty -2 -8 0 10 -262144
-1 -1 0 1;
#X obj 723 264 hsl 128 15 0 100 0 0 empty empty empty -2 -8 0 10 -262144
-1 -1 0 1;
#X obj 729 316 hsl 128 15 0.7 0.98 0 0 empty empty empty -2 -8 0 10
-262144 -1 -1 0 1;
#X obj 376 435 *~;
#X floatatom 447 426 5 0 0 0 - - -, f 5;
#X obj 512 406 hsl 128 15 0 0.5 0 0 empty empty empty -2 -8 0 10 -262144
-1 -1 0 1;
#X obj 357 377 +~;
#X connect 0 0 1 0;
#X connect 1 0 2 0;
#X connect 2 0 7 0;
#X connect 2 0 14 0;
#X connect 4 0 0 0;
#X connect 5 0 2 0;
#X connect 7 0 30 1;
#X connect 8 0 7 0;
#X connect 9 0 7 0;
#X connect 10 0 7 0;
#X connect 11 0 8 0;
#X connect 12 0 9 0;
#X connect 13 0 10 0;
#X connect 14 0 30 0;
#X connect 15 0 14 0;
#X connect 16 0 14 0;
#X connect 17 0 14 0;
#X connect 18 0 15 0;
#X connect 19 0 16 0;
#X connect 20 0 17 0;
#X connect 21 0 20 0;
#X connect 22 0 19 0;
#X connect 23 0 18 0;
#X connect 24 0 11 0;
#X connect 25 0 12 0;
#X connect 26 0 13 0;
#X connect 27 0 3 0;
#X connect 27 0 3 1;
#X connect 28 0 27 1;
#X connect 29 0 28 0;
#X connect 30 0 27 0;
