#N canvas 1122 124 751 545 10;
#X obj 333 110 openpanel;
#X msg 333 148 open \$1;
#X obj 330 204 readsf~;
#X obj 329 331 dac~;
#X obj 338 63 bng 15 250 50 0 empty empty empty 17 7 0 10 -262144 -1
-1;
#X msg 433 136 1;
#X text 371 61 1 Hier klicken um eine .wav auszuwaelen;
#X text 475 136 2 Hier klicken um Audio zu starten;
#X obj 330 269 combFilter~;
#X msg 202 197 delay \$1;
#X floatatom 156 160 5 0 0 0 - - -, f 5;
#X floatatom 88 199 5 0 0 0 - - -, f 5;
#X msg 165 237 feedback \$1;
#X msg 237 113 damping \$1;
#X floatatom 202 50 5 0 0 0 - - -, f 5;
#X text 25 168 0 < fb < 0.9;
#X text 72 130 0 < delay < 44100;
#X text 137 23 0 < damp < 0.9;
#X connect 0 0 1 0;
#X connect 1 0 2 0;
#X connect 2 0 8 0;
#X connect 4 0 0 0;
#X connect 5 0 2 0;
#X connect 8 0 3 0;
#X connect 8 0 3 1;
#X connect 9 0 8 0;
#X connect 10 0 9 0;
#X connect 11 0 12 0;
#X connect 12 0 8 0;
#X connect 13 0 8 0;
#X connect 14 0 13 0;
