#N canvas -9 -2 1920 980 10;
#X obj 333 110 openpanel;
#X msg 333 148 open \$1;
#X obj 330 204 readsf~;
#X obj 274 397 dac~;
#X obj 338 63 bng 15 250 50 0 empty empty empty 17 7 0 10 -262144 -1
-1;
#X msg 433 136 1;
#X text 371 61 1 Hier klicken um eine .wav auszuwaelen;
#X text 475 136 2 Hier klicken um Audio zu starten;
#X obj 410 274 stp_delay~;
#X msg 485 241 delay \$1;
#X floatatom 551 196 5 0 0 0 - - -, f 5;
#X obj 329 330 +~;
#X obj 467 324 *~;
#X floatatom 541 296 5 0 0 0 - - -, f 5;
#X obj 359 387 send~ noloop;
#X obj 409 195 receive~ noloop;
#X text 554 319 0 < x < 0.9 Achtung 0.9 nicht überschreiten!!!;
#X connect 0 0 1 0;
#X connect 1 0 2 0;
#X connect 2 0 11 0;
#X connect 4 0 0 0;
#X connect 5 0 2 0;
#X connect 8 0 12 0;
#X connect 9 0 8 0;
#X connect 10 0 9 0;
#X connect 11 0 3 0;
#X connect 11 0 3 1;
#X connect 11 0 14 0;
#X connect 12 0 11 1;
#X connect 13 0 12 1;
#X connect 15 0 8 0;
