#N canvas 0 22 1440 852 10;
#X obj 1307 484 openpanel;
#X msg 1310 522 open \$1;
#X obj 1306 575 readsf~;
#X obj 1111 1015 dac~;
#X obj 1310 454 bng 15 250 50 0 empty empty empty 17 7 0 10 -262144
-1 -1;
#X msg 1380 547 1;
#X obj 199 283 combFilter~;
#X msg 200 256 damping \$1;
#X msg 138 257 delay \$1;
#X msg 57 257 feedback \$1;
#X floatatom 198 228 5 0 0 0 - - -, f 5;
#X floatatom 135 228 5 0 0 0 - - -, f 5;
#X floatatom 60 232 5 0 0 0 - - -, f 5;
#X obj 199 206 hsl 64 15 0 1 0 0 empty empty empty -2 -8 0 10 -262144
-1 -1 2446 1;
#X obj 115 199 hsl 64 15 0 2000 0 0 empty empty empty -2 -8 0 10 -262144
-1 -1 4985 1;
#X obj 27 202 hsl 64 15 0 0.99 0 0 empty empty empty -2 -8 0 10 -262144
-1 -1 4907 1;
#X floatatom 194 151 5 0 0 0 - - -, f 5;
#X obj 181 120 ctlin 11;
#X obj 103 128 ctlin 12;
#X obj 198 181 / 127;
#X obj 10 119 ctlin 13;
#X floatatom 18 148 5 0 0 0 - - -, f 5;
#X obj 21 175 / 127;
#X obj 336 353 +~;
#X obj 247 887 stp_allpassApx~;
#X msg 246 860 delay \$1;
#X msg 185 860 gain \$1;
#X obj 168 809 hsl 64 15 0 1 0 0 empty empty empty -2 -8 0 10 -262144
-1 -1 2688 1;
#X obj 249 807 hsl 64 15 0 1000 0 0 empty empty empty -2 -8 0 10 -262144
-1 -1 2295 1;
#X floatatom 184 833 5 0 0 0 - - -, f 5;
#X floatatom 245 833 5 0 0 0 - - -, f 5;
#X floatatom 163 752 5 0 0 0 - - -, f 5;
#X obj 164 781 / 127;
#X obj 161 721 ctlin 4;
#X obj 245 745 ctlin 5;
#X obj 109 157 * 10;
#X obj 200 309 *~ 0.125;
#X obj 1111 942 pan~;
#X obj 1232 930 hsl 128 15 0 1 0 0 empty empty empty -2 -8 0 10 -262144
-1 -1 12700 1;
#X obj 1379 659 send~ audioin;
#X obj 84 286 receive~ audioin;
#X obj 463 286 combFilter~;
#X msg 464 259 damping \$1;
#X msg 402 260 delay \$1;
#X msg 321 260 feedback \$1;
#X floatatom 462 231 5 0 0 0 - - -, f 5;
#X floatatom 399 231 5 0 0 0 - - -, f 5;
#X floatatom 324 235 5 0 0 0 - - -, f 5;
#X obj 463 209 hsl 64 15 0 1 0 0 empty empty empty -2 -8 0 10 -262144
-1 -1 4701 1;
#X obj 376 202 hsl 64 15 0 2000 0 0 empty empty empty -2 -8 0 10 -262144
-1 -1 4246 1;
#X obj 291 205 hsl 64 15 0 0.99 0 0 empty empty empty -2 -8 0 10 -262144
-1 -1 5261 1;
#X floatatom 458 154 5 0 0 0 - - -, f 5;
#X obj 445 123 ctlin 11;
#X obj 363 143 ctlin 12;
#X obj 462 184 / 127;
#X obj 274 122 ctlin 13;
#X floatatom 282 151 5 0 0 0 - - -, f 5;
#X obj 285 178 / 127;
#X obj 369 172 * 10;
#X obj 444 315 *~ 0.125;
#X obj 722 287 combFilter~;
#X msg 723 260 damping \$1;
#X msg 661 261 delay \$1;
#X msg 580 261 feedback \$1;
#X floatatom 721 232 5 0 0 0 - - -, f 5;
#X floatatom 658 232 5 0 0 0 - - -, f 5;
#X floatatom 583 236 5 0 0 0 - - -, f 5;
#X obj 722 210 hsl 64 15 0 1 0 0 empty empty empty -2 -8 0 10 -262144
-1 -1 4443 1;
#X obj 635 203 hsl 64 15 0 2000 0 0 empty empty empty -2 -8 0 10 -262144
-1 -1 4759 1;
#X obj 550 206 hsl 64 15 0 0.99 0 0 empty empty empty -2 -8 0 10 -262144
-1 -1 5230 1;
#X floatatom 717 155 5 0 0 0 - - -, f 5;
#X obj 704 124 ctlin 11;
#X obj 622 144 ctlin 12;
#X obj 721 185 / 127;
#X obj 533 123 ctlin 13;
#X floatatom 541 152 5 0 0 0 - - -, f 5;
#X obj 544 179 / 127;
#X obj 628 173 * 10;
#X obj 723 313 *~ 0.125;
#X obj 986 286 combFilter~;
#X msg 987 259 damping \$1;
#X msg 925 260 delay \$1;
#X msg 844 260 feedback \$1;
#X floatatom 985 231 5 0 0 0 - - -, f 5;
#X floatatom 922 231 5 0 0 0 - - -, f 5;
#X floatatom 847 235 5 0 0 0 - - -, f 5;
#X obj 986 209 hsl 64 15 0 1 0 0 empty empty empty -2 -8 0 10 -262144
-1 -1 4285 1;
#X obj 899 202 hsl 64 15 0 2000 0 0 empty empty empty -2 -8 0 10 -262144
-1 -1 4319 1;
#X obj 814 205 hsl 64 15 0 0.99 0 0 empty empty empty -2 -8 0 10 -262144
-1 -1 5131 1;
#X floatatom 981 154 5 0 0 0 - - -, f 5;
#X obj 968 123 ctlin 11;
#X obj 886 143 ctlin 12;
#X obj 985 184 / 127;
#X obj 797 122 ctlin 13;
#X floatatom 805 151 5 0 0 0 - - -, f 5;
#X obj 808 178 / 127;
#X obj 892 172 * 10;
#X obj 987 312 *~ 0.125;
#X obj 1318 291 combFilter~;
#X msg 1319 264 damping \$1;
#X msg 1257 265 delay \$1;
#X msg 1176 265 feedback \$1;
#X floatatom 1317 236 5 0 0 0 - - -, f 5;
#X floatatom 1254 236 5 0 0 0 - - -, f 5;
#X floatatom 1179 240 5 0 0 0 - - -, f 5;
#X obj 1318 214 hsl 64 15 0 1 0 0 empty empty empty -2 -8 0 10 -262144
-1 -1 2894 1;
#X obj 1231 207 hsl 64 15 0 2000 0 0 empty empty empty -2 -8 0 10 -262144
-1 -1 4401 1;
#X obj 1146 210 hsl 64 15 0 0.99 0 0 empty empty empty -2 -8 0 10 -262144
-1 -1 5031 1;
#X floatatom 1313 159 5 0 0 0 - - -, f 5;
#X obj 1300 128 ctlin 11;
#X obj 1218 148 ctlin 12;
#X obj 1317 189 / 127;
#X obj 1129 127 ctlin 13;
#X floatatom 1137 156 5 0 0 0 - - -, f 5;
#X obj 1140 183 / 127;
#X obj 1224 177 * 10;
#X obj 1319 317 *~ 0.125;
#X obj 1577 291 combFilter~;
#X msg 1578 264 damping \$1;
#X msg 1516 265 delay \$1;
#X msg 1435 265 feedback \$1;
#X floatatom 1576 236 5 0 0 0 - - -, f 5;
#X floatatom 1513 236 5 0 0 0 - - -, f 5;
#X floatatom 1438 240 5 0 0 0 - - -, f 5;
#X obj 1577 214 hsl 64 15 0 1 0 0 empty empty empty -2 -8 0 10 -262144
-1 -1 4272 1;
#X obj 1490 207 hsl 64 15 0 2000 0 0 empty empty empty -2 -8 0 10 -262144
-1 -1 3855 1;
#X obj 1405 210 hsl 64 15 0 0.99 0 0 empty empty empty -2 -8 0 10 -262144
-1 -1 5509 1;
#X floatatom 1572 159 5 0 0 0 - - -, f 5;
#X obj 1559 128 ctlin 11;
#X obj 1477 148 ctlin 12;
#X obj 1576 189 / 127;
#X obj 1388 127 ctlin 13;
#X floatatom 1396 156 5 0 0 0 - - -, f 5;
#X obj 1399 183 / 127;
#X obj 1483 177 * 10;
#X obj 1578 317 *~ 0.125;
#X obj 207 598 combFilter~;
#X msg 208 571 damping \$1;
#X msg 146 572 delay \$1;
#X msg 65 572 feedback \$1;
#X floatatom 206 543 5 0 0 0 - - -, f 5;
#X floatatom 143 543 5 0 0 0 - - -, f 5;
#X floatatom 68 547 5 0 0 0 - - -, f 5;
#X obj 207 521 hsl 64 15 0 1 0 0 empty empty empty -2 -8 0 10 -262144
-1 -1 3037 1;
#X obj 120 514 hsl 64 15 0 2000 0 0 empty empty empty -2 -8 0 10 -262144
-1 -1 4571 1;
#X obj 35 517 hsl 64 15 0 0.99 0 0 empty empty empty -2 -8 0 10 -262144
-1 -1 6172 1;
#X floatatom 202 466 5 0 0 0 - - -, f 5;
#X obj 189 435 ctlin 11;
#X obj 107 455 ctlin 12;
#X obj 206 496 / 127;
#X obj 18 434 ctlin 13;
#X floatatom 26 463 5 0 0 0 - - -, f 5;
#X obj 29 490 / 127;
#X obj 113 484 * 10;
#X obj 208 624 *~ 0.125;
#X obj 487 597 combFilter~;
#X msg 488 570 damping \$1;
#X msg 426 571 delay \$1;
#X msg 345 571 feedback \$1;
#X floatatom 486 542 5 0 0 0 - - -, f 5;
#X floatatom 423 542 5 0 0 0 - - -, f 5;
#X floatatom 348 546 5 0 0 0 - - -, f 5;
#X obj 487 520 hsl 64 15 0 1 0 0 empty empty empty -2 -8 0 10 -262144
-1 -1 3942 1;
#X obj 400 513 hsl 64 15 0 2000 0 0 empty empty empty -2 -8 0 10 -262144
-1 -1 2947 1;
#X obj 315 516 hsl 64 15 0 0.99 0 0 empty empty empty -2 -8 0 10 -262144
-1 -1 5825 1;
#X floatatom 482 465 5 0 0 0 - - -, f 5;
#X obj 469 434 ctlin 11;
#X obj 387 454 ctlin 12;
#X obj 486 495 / 127;
#X obj 298 433 ctlin 13;
#X floatatom 306 462 5 0 0 0 - - -, f 5;
#X obj 309 489 / 127;
#X obj 393 483 * 10;
#X obj 488 623 *~ 0.125;
#X obj 350 290 receive~ audioin;
#X obj 609 293 receive~ audioin;
#X obj 875 289 receive~ audioin;
#X obj 1209 294 receive~ audioin;
#X obj 1465 297 receive~ audioin;
#X obj 96 602 receive~ audioin;
#X obj 377 602 receive~ audioin;
#X obj 866 360 +~;
#X obj 1465 368 +~;
#X obj 606 426 +~;
#X obj 984 459 +~;
#X obj 336 685 +~;
#X obj 741 709 +~;
#X obj 445 927 stp_allpassApx~;
#X msg 436 861 delay \$1;
#X msg 375 861 gain \$1;
#X obj 358 810 hsl 64 15 0 1 0 0 empty empty empty -2 -8 0 10 -262144
-1 -1 1995 1;
#X obj 439 808 hsl 64 15 0 1000 0 0 empty empty empty -2 -8 0 10 -262144
-1 -1 1625 1;
#X floatatom 374 834 5 0 0 0 - - -, f 5;
#X floatatom 435 834 5 0 0 0 - - -, f 5;
#X floatatom 353 753 5 0 0 0 - - -, f 5;
#X obj 354 782 / 127;
#X obj 436 776 * 8;
#X obj 351 722 ctlin 4;
#X obj 435 746 ctlin 5;
#X obj 928 883 stp_allpassApx~;
#X msg 927 856 delay \$1;
#X msg 866 856 gain \$1;
#X obj 849 805 hsl 64 15 0 1 0 0 empty empty empty -2 -8 0 10 -262144
-1 -1 2346 1;
#X obj 930 803 hsl 64 15 0 1000 0 0 empty empty empty -2 -8 0 10 -262144
-1 -1 1670 1;
#X floatatom 865 829 5 0 0 0 - - -, f 5;
#X floatatom 926 829 5 0 0 0 - - -, f 5;
#X floatatom 844 748 5 0 0 0 - - -, f 5;
#X obj 845 777 / 127;
#X obj 927 771 * 8;
#X obj 842 717 ctlin 4;
#X obj 926 741 ctlin 5;
#X obj 1118 886 stp_allpassApx~;
#X msg 1117 859 delay \$1;
#X msg 1056 859 gain \$1;
#X obj 1039 808 hsl 64 15 0 1 0 0 empty empty empty -2 -8 0 10 -262144
-1 -1 1617 1;
#X obj 1120 806 hsl 64 15 0 1000 0 0 empty empty empty -2 -8 0 10 -262144
-1 -1 1204 1;
#X floatatom 1055 832 5 0 0 0 - - -, f 5;
#X floatatom 1116 832 5 0 0 0 - - -, f 5;
#X floatatom 1034 751 5 0 0 0 - - -, f 5;
#X obj 1035 780 / 127;
#X obj 1117 774 * 8;
#X obj 1032 720 ctlin 4;
#X obj 1116 744 ctlin 5;
#X obj 1257 877 receive~ audioin;
#X obj 736 743 send~ combsum;
#X obj 108 890 receive~ combsum;
#X obj 300 332 *~;
#X obj 407 350 *~;
#X obj 765 356 *~;
#X obj 964 349 *~;
#X obj 1337 356 *~;
#X obj 1546 363 *~;
#X obj 225 674 *~;
#X obj 452 664 *~;
#X obj 452 664 *~;
#X floatatom 226 91 5 0 0 0 - - -, f 5;
#X floatatom 543 347 5 0 0 0 - - -, f 5;
#X floatatom 1607 351 5 0 0 0 - - -, f 5;
#X floatatom 1360 142 5 0 0 0 - - -, f 5;
#X floatatom 1036 348 5 0 0 0 - - -, f 5;
#X floatatom 803 320 5 0 0 0 - - -, f 5;
#X floatatom 249 415 5 0 0 0 - - -, f 5;
#X floatatom 568 656 5 0 0 0 - - -, f 5;
#X obj 262 965 pan~;
#X floatatom 350 924 5 0 0 0 - - -, f 5;
#X obj 591 955 pan~;
#X floatatom 611 926 5 0 0 0 - - -, f 5;
#X obj 752 974 pan~;
#X floatatom 751 936 5 0 0 0 - - -, f 5;
#X obj 959 960 pan~;
#X floatatom 979 931 5 0 0 0 - - -, f 5;
#X obj 1650 67 oscControl;
#X obj 60 39 receive c1;
#X obj 44 74 stp_paramRoute;
#X obj 74 99 * 2000;
#X obj 45 696 receive all1;
#X obj 23 737 stp_allpassParamRoute;
#X obj 246 775 * 8;
#X obj 109 759 * 500;
#X obj 419 58 stp_paramRoute;
#X obj 449 83 * 2000;
#X obj 435 23 receive c2;
#X obj 639 69 stp_paramRoute;
#X obj 669 94 * 2000;
#X obj 655 34 receive c3;
#X obj 861 62 stp_paramRoute;
#X obj 891 87 * 2000;
#X obj 877 27 receive c4;
#X obj 1174 59 stp_paramRoute;
#X obj 1204 84 * 2000;
#X obj 1442 66 stp_paramRoute;
#X obj 1472 91 * 2000;
#X obj 85 390 stp_paramRoute;
#X obj 115 415 * 2000;
#X obj 1190 24 receive c5;
#X obj 1458 31 receive c6;
#X obj 101 355 receive c7;
#X obj 608 514 stp_paramRoute;
#X obj 638 539 * 2000;
#X obj 624 479 receive c8;
#X obj 537 763 stp_allpassParamRoute;
#X obj 547 788 * 500;
#X obj 559 722 receive all2;
#X obj 941 618 stp_allpassParamRoute;
#X obj 969 652 * 500;
#X obj 965 575 receive all3;
#X obj 1218 753 stp_allpassParamRoute;
#X obj 1246 787 * 500;
#X obj 1242 710 receive all4;
#X obj 1369 895 receive crossfade;
#X obj 1465 538 adc~ 9;
#X connect 0 0 1 0;
#X connect 1 0 2 0;
#X connect 2 0 39 0;
#X connect 4 0 0 0;
#X connect 5 0 2 0;
#X connect 6 0 36 0;
#X connect 7 0 6 0;
#X connect 8 0 6 0;
#X connect 9 0 6 0;
#X connect 10 0 7 0;
#X connect 11 0 8 0;
#X connect 12 0 9 0;
#X connect 13 0 10 0;
#X connect 14 0 11 0;
#X connect 15 0 12 0;
#X connect 16 0 19 0;
#X connect 17 0 16 0;
#X connect 18 0 35 0;
#X connect 19 0 13 0;
#X connect 20 0 21 0;
#X connect 21 0 22 0;
#X connect 22 0 15 0;
#X connect 23 0 183 0;
#X connect 24 0 243 1;
#X connect 25 0 24 0;
#X connect 26 0 24 0;
#X connect 27 0 29 0;
#X connect 28 0 30 0;
#X connect 29 0 26 0;
#X connect 30 0 25 0;
#X connect 31 0 32 0;
#X connect 32 0 27 0;
#X connect 33 0 31 0;
#X connect 34 0 257 0;
#X connect 35 0 14 0;
#X connect 36 0 226 0;
#X connect 37 0 3 0;
#X connect 37 0 3 1;
#X connect 38 0 37 2;
#X connect 40 0 6 0;
#X connect 41 0 59 0;
#X connect 42 0 41 0;
#X connect 43 0 41 0;
#X connect 44 0 41 0;
#X connect 45 0 42 0;
#X connect 46 0 43 0;
#X connect 47 0 44 0;
#X connect 48 0 45 0;
#X connect 49 0 46 0;
#X connect 50 0 47 0;
#X connect 51 0 54 0;
#X connect 52 0 51 0;
#X connect 53 0 58 0;
#X connect 54 0 48 0;
#X connect 55 0 56 0;
#X connect 56 0 57 0;
#X connect 57 0 50 0;
#X connect 58 0 49 0;
#X connect 59 0 227 0;
#X connect 60 0 78 0;
#X connect 61 0 60 0;
#X connect 62 0 60 0;
#X connect 63 0 60 0;
#X connect 64 0 61 0;
#X connect 65 0 62 0;
#X connect 66 0 63 0;
#X connect 67 0 64 0;
#X connect 68 0 65 0;
#X connect 69 0 66 0;
#X connect 70 0 73 0;
#X connect 71 0 70 0;
#X connect 72 0 77 0;
#X connect 73 0 67 0;
#X connect 74 0 75 0;
#X connect 75 0 76 0;
#X connect 76 0 69 0;
#X connect 77 0 68 0;
#X connect 78 0 228 0;
#X connect 79 0 97 0;
#X connect 80 0 79 0;
#X connect 81 0 79 0;
#X connect 82 0 79 0;
#X connect 83 0 80 0;
#X connect 84 0 81 0;
#X connect 85 0 82 0;
#X connect 86 0 83 0;
#X connect 87 0 84 0;
#X connect 88 0 85 0;
#X connect 89 0 92 0;
#X connect 90 0 89 0;
#X connect 91 0 96 0;
#X connect 92 0 86 0;
#X connect 93 0 94 0;
#X connect 94 0 95 0;
#X connect 95 0 88 0;
#X connect 96 0 87 0;
#X connect 97 0 229 0;
#X connect 98 0 116 0;
#X connect 99 0 98 0;
#X connect 100 0 98 0;
#X connect 101 0 98 0;
#X connect 102 0 99 0;
#X connect 103 0 100 0;
#X connect 104 0 101 0;
#X connect 105 0 102 0;
#X connect 106 0 103 0;
#X connect 107 0 104 0;
#X connect 108 0 111 0;
#X connect 109 0 108 0;
#X connect 110 0 115 0;
#X connect 111 0 105 0;
#X connect 112 0 113 0;
#X connect 113 0 114 0;
#X connect 114 0 107 0;
#X connect 115 0 106 0;
#X connect 116 0 230 0;
#X connect 117 0 135 0;
#X connect 118 0 117 0;
#X connect 119 0 117 0;
#X connect 120 0 117 0;
#X connect 121 0 118 0;
#X connect 122 0 119 0;
#X connect 123 0 120 0;
#X connect 124 0 121 0;
#X connect 125 0 122 0;
#X connect 126 0 123 0;
#X connect 127 0 130 0;
#X connect 128 0 127 0;
#X connect 129 0 134 0;
#X connect 130 0 124 0;
#X connect 131 0 132 0;
#X connect 132 0 133 0;
#X connect 133 0 126 0;
#X connect 134 0 125 0;
#X connect 135 0 231 0;
#X connect 136 0 154 0;
#X connect 137 0 136 0;
#X connect 138 0 136 0;
#X connect 139 0 136 0;
#X connect 140 0 137 0;
#X connect 141 0 138 0;
#X connect 142 0 139 0;
#X connect 143 0 140 0;
#X connect 144 0 141 0;
#X connect 145 0 142 0;
#X connect 146 0 149 0;
#X connect 147 0 146 0;
#X connect 148 0 153 0;
#X connect 149 0 143 0;
#X connect 150 0 151 0;
#X connect 151 0 152 0;
#X connect 152 0 145 0;
#X connect 153 0 144 0;
#X connect 154 0 232 0;
#X connect 155 0 173 0;
#X connect 156 0 155 0;
#X connect 157 0 155 0;
#X connect 158 0 155 0;
#X connect 159 0 156 0;
#X connect 160 0 157 0;
#X connect 161 0 158 0;
#X connect 162 0 159 0;
#X connect 163 0 160 0;
#X connect 164 0 161 0;
#X connect 165 0 168 0;
#X connect 166 0 165 0;
#X connect 167 0 172 0;
#X connect 168 0 162 0;
#X connect 169 0 170 0;
#X connect 170 0 171 0;
#X connect 171 0 164 0;
#X connect 172 0 163 0;
#X connect 173 0 233 0;
#X connect 174 0 41 0;
#X connect 175 0 60 0;
#X connect 176 0 79 0;
#X connect 177 0 98 0;
#X connect 178 0 117 0;
#X connect 179 0 136 0;
#X connect 180 0 155 0;
#X connect 181 0 183 1;
#X connect 182 0 184 1;
#X connect 183 0 184 0;
#X connect 184 0 186 1;
#X connect 185 0 186 0;
#X connect 186 0 224 0;
#X connect 187 0 245 1;
#X connect 188 0 187 0;
#X connect 189 0 187 0;
#X connect 190 0 192 0;
#X connect 191 0 193 0;
#X connect 192 0 189 0;
#X connect 193 0 188 0;
#X connect 194 0 195 0;
#X connect 195 0 190 0;
#X connect 196 0 191 0;
#X connect 197 0 194 0;
#X connect 198 0 196 0;
#X connect 199 0 247 1;
#X connect 200 0 199 0;
#X connect 201 0 199 0;
#X connect 202 0 204 0;
#X connect 203 0 205 0;
#X connect 204 0 201 0;
#X connect 205 0 200 0;
#X connect 206 0 207 0;
#X connect 207 0 202 0;
#X connect 208 0 203 0;
#X connect 209 0 206 0;
#X connect 210 0 208 0;
#X connect 211 0 249 1;
#X connect 212 0 211 0;
#X connect 213 0 211 0;
#X connect 214 0 216 0;
#X connect 215 0 217 0;
#X connect 216 0 213 0;
#X connect 217 0 212 0;
#X connect 218 0 219 0;
#X connect 219 0 214 0;
#X connect 220 0 215 0;
#X connect 221 0 218 0;
#X connect 222 0 220 0;
#X connect 223 0 37 1;
#X connect 225 0 24 0;
#X connect 225 0 243 0;
#X connect 226 0 23 0;
#X connect 227 0 23 1;
#X connect 228 0 181 0;
#X connect 229 0 181 1;
#X connect 230 0 182 0;
#X connect 231 0 182 1;
#X connect 232 0 185 0;
#X connect 233 0 185 1;
#X connect 235 0 226 1;
#X connect 236 0 227 1;
#X connect 237 0 231 1;
#X connect 238 0 230 1;
#X connect 239 0 229 1;
#X connect 240 0 228 1;
#X connect 241 0 232 1;
#X connect 242 0 233 1;
#X connect 243 0 187 0;
#X connect 243 0 245 0;
#X connect 244 0 243 2;
#X connect 245 0 199 0;
#X connect 245 0 247 0;
#X connect 246 0 245 2;
#X connect 247 0 249 0;
#X connect 247 0 211 0;
#X connect 248 0 247 2;
#X connect 249 0 37 0;
#X connect 250 0 249 2;
#X connect 252 0 253 0;
#X connect 253 0 15 0;
#X connect 253 1 254 0;
#X connect 253 2 13 0;
#X connect 253 3 235 0;
#X connect 254 0 14 0;
#X connect 255 0 256 0;
#X connect 256 0 27 0;
#X connect 256 1 258 0;
#X connect 256 2 244 0;
#X connect 257 0 28 0;
#X connect 258 0 28 0;
#X connect 259 0 50 0;
#X connect 259 1 260 0;
#X connect 259 2 48 0;
#X connect 259 3 236 0;
#X connect 260 0 49 0;
#X connect 261 0 259 0;
#X connect 262 0 69 0;
#X connect 262 1 263 0;
#X connect 262 2 67 0;
#X connect 262 3 240 0;
#X connect 263 0 68 0;
#X connect 264 0 262 0;
#X connect 265 0 88 0;
#X connect 265 1 266 0;
#X connect 265 2 86 0;
#X connect 265 3 239 0;
#X connect 266 0 87 0;
#X connect 267 0 265 0;
#X connect 268 0 107 0;
#X connect 268 1 269 0;
#X connect 268 2 105 0;
#X connect 268 3 238 0;
#X connect 269 0 106 0;
#X connect 270 0 126 0;
#X connect 270 1 271 0;
#X connect 270 2 124 0;
#X connect 270 3 237 0;
#X connect 271 0 125 0;
#X connect 272 0 145 0;
#X connect 272 1 273 0;
#X connect 272 2 143 0;
#X connect 272 3 241 0;
#X connect 273 0 144 0;
#X connect 274 0 268 0;
#X connect 275 0 270 0;
#X connect 276 0 272 0;
#X connect 277 0 164 0;
#X connect 277 1 278 0;
#X connect 277 2 162 0;
#X connect 277 3 242 0;
#X connect 278 0 163 0;
#X connect 279 0 277 0;
#X connect 280 0 190 0;
#X connect 280 1 281 0;
#X connect 280 2 246 0;
#X connect 281 0 191 0;
#X connect 282 0 280 0;
#X connect 283 0 202 0;
#X connect 283 1 284 0;
#X connect 283 2 248 0;
#X connect 284 0 203 0;
#X connect 285 0 283 0;
#X connect 286 0 214 0;
#X connect 286 1 287 0;
#X connect 286 2 250 0;
#X connect 287 0 215 0;
#X connect 288 0 286 0;
#X connect 289 0 38 0;
#X connect 290 0 39 0;
