#N canvas -2 -3 1920 980 10;
#X obj 1290 539 openpanel;
#X msg 1293 577 open \$1;
#X obj 1289 630 readsf~;
#X obj 1111 1015 dac~;
#X obj 1293 509 bng 15 250 50 0 empty empty empty 17 7 0 10 -262144
-1 -1;
#X msg 1363 602 1;
#X obj 199 283 combFilter~;
#X msg 200 256 damping \$1;
#X msg 138 257 delay \$1;
#X msg 57 257 feedback \$1;
#X floatatom 198 228 5 0 0 0 - - -, f 5;
#X floatatom 135 228 5 0 0 0 - - -, f 5;
#X floatatom 60 232 5 0 0 0 - - -, f 5;
#X obj 199 206 hsl 64 15 0 1 0 0 empty empty empty -2 -8 0 10 -262144
-1 -1 0 1;
#X obj 112 199 hsl 64 15 0 2000 0 0 empty empty empty -2 -8 0 10 -262144
-1 -1 0 1;
#X obj 27 202 hsl 64 15 0 0.99 0 0 empty empty empty -2 -8 0 10 -262144
-1 -1 0 1;
#X floatatom 194 151 5 0 0 0 - - -, f 5;
#X obj 181 120 ctlin 11;
#X obj 99 140 ctlin 12;
#X obj 198 181 / 127;
#X obj 10 119 ctlin 13;
#X floatatom 18 148 5 0 0 0 - - -, f 5;
#X obj 21 175 / 127;
#X obj 336 353 +~;
#X obj 247 887 stp_allpassApx~;
#X msg 246 860 delay \$1;
#X msg 185 860 gain \$1;
#X obj 168 809 hsl 64 15 0 1 0 0 empty empty empty -2 -8 0 10 -262144
-1 -1 0 1;
#X obj 249 807 hsl 64 15 0 1000 0 0 empty empty empty -2 -8 0 10 -262144
-1 -1 0 1;
#X floatatom 184 833 5 0 0 0 - - -, f 5;
#X floatatom 245 833 5 0 0 0 - - -, f 5;
#X floatatom 163 752 5 0 0 0 - - -, f 5;
#X obj 164 781 / 127;
#X obj 246 775 * 8;
#X obj 161 721 ctlin 4;
#X obj 245 745 ctlin 5;
#X obj 105 169 * 10;
#X obj 200 309 *~ 0.125;
#X obj 1111 942 pan~;
#X obj 1232 930 hsl 128 15 0 1 0 0 empty empty empty -2 -8 0 10 -262144
-1 -1 0 1;
#X obj 1278 661 send~ audioin;
#X obj 84 286 receive~ audioin;
#X obj 463 286 combFilter~;
#X msg 464 259 damping \$1;
#X msg 402 260 delay \$1;
#X msg 321 260 feedback \$1;
#X floatatom 462 231 5 0 0 0 - - -, f 5;
#X floatatom 399 231 5 0 0 0 - - -, f 5;
#X floatatom 324 235 5 0 0 0 - - -, f 5;
#X obj 463 209 hsl 64 15 0 1 0 0 empty empty empty -2 -8 0 10 -262144
-1 -1 0 1;
#X obj 376 202 hsl 64 15 0 2000 0 0 empty empty empty -2 -8 0 10 -262144
-1 -1 0 1;
#X obj 291 205 hsl 64 15 0 0.99 0 0 empty empty empty -2 -8 0 10 -262144
-1 -1 0 1;
#X floatatom 458 154 5 0 0 0 - - -, f 5;
#X obj 445 123 ctlin 11;
#X obj 363 143 ctlin 12;
#X obj 462 184 / 127;
#X obj 274 122 ctlin 13;
#X floatatom 282 151 5 0 0 0 - - -, f 5;
#X obj 285 178 / 127;
#X obj 369 172 * 10;
#X obj 464 312 *~ 0.125;
#X obj 722 287 combFilter~;
#X msg 723 260 damping \$1;
#X msg 661 261 delay \$1;
#X msg 580 261 feedback \$1;
#X floatatom 721 232 5 0 0 0 - - -, f 5;
#X floatatom 658 232 5 0 0 0 - - -, f 5;
#X floatatom 583 236 5 0 0 0 - - -, f 5;
#X obj 722 210 hsl 64 15 0 1 0 0 empty empty empty -2 -8 0 10 -262144
-1 -1 0 1;
#X obj 635 203 hsl 64 15 0 2000 0 0 empty empty empty -2 -8 0 10 -262144
-1 -1 0 1;
#X obj 550 206 hsl 64 15 0 0.99 0 0 empty empty empty -2 -8 0 10 -262144
-1 -1 0 1;
#X floatatom 717 155 5 0 0 0 - - -, f 5;
#X obj 704 124 ctlin 11;
#X obj 622 144 ctlin 12;
#X obj 721 185 / 127;
#X obj 533 123 ctlin 13;
#X floatatom 541 152 5 0 0 0 - - -, f 5;
#X obj 544 179 / 127;
#X obj 628 173 * 10;
#X obj 723 313 *~ 0.125;
#X obj 986 286 combFilter~;
#X msg 987 259 damping \$1;
#X msg 925 260 delay \$1;
#X msg 844 260 feedback \$1;
#X floatatom 985 231 5 0 0 0 - - -, f 5;
#X floatatom 922 231 5 0 0 0 - - -, f 5;
#X floatatom 847 235 5 0 0 0 - - -, f 5;
#X obj 986 209 hsl 64 15 0 1 0 0 empty empty empty -2 -8 0 10 -262144
-1 -1 0 1;
#X obj 899 202 hsl 64 15 0 2000 0 0 empty empty empty -2 -8 0 10 -262144
-1 -1 0 1;
#X obj 814 205 hsl 64 15 0 0.99 0 0 empty empty empty -2 -8 0 10 -262144
-1 -1 0 1;
#X floatatom 981 154 5 0 0 0 - - -, f 5;
#X obj 968 123 ctlin 11;
#X obj 886 143 ctlin 12;
#X obj 985 184 / 127;
#X obj 797 122 ctlin 13;
#X floatatom 805 151 5 0 0 0 - - -, f 5;
#X obj 808 178 / 127;
#X obj 892 172 * 10;
#X obj 987 312 *~ 0.125;
#X obj 1318 291 combFilter~;
#X msg 1319 264 damping \$1;
#X msg 1257 265 delay \$1;
#X msg 1176 265 feedback \$1;
#X floatatom 1317 236 5 0 0 0 - - -, f 5;
#X floatatom 1254 236 5 0 0 0 - - -, f 5;
#X floatatom 1179 240 5 0 0 0 - - -, f 5;
#X obj 1318 214 hsl 64 15 0 1 0 0 empty empty empty -2 -8 0 10 -262144
-1 -1 0 1;
#X obj 1231 207 hsl 64 15 0 2000 0 0 empty empty empty -2 -8 0 10 -262144
-1 -1 0 1;
#X obj 1146 210 hsl 64 15 0 0.99 0 0 empty empty empty -2 -8 0 10 -262144
-1 -1 0 1;
#X floatatom 1313 159 5 0 0 0 - - -, f 5;
#X obj 1300 128 ctlin 11;
#X obj 1218 148 ctlin 12;
#X obj 1317 189 / 127;
#X obj 1129 127 ctlin 13;
#X floatatom 1137 156 5 0 0 0 - - -, f 5;
#X obj 1140 183 / 127;
#X obj 1224 177 * 10;
#X obj 1319 317 *~ 0.125;
#X obj 1577 291 combFilter~;
#X msg 1578 264 damping \$1;
#X msg 1516 265 delay \$1;
#X msg 1435 265 feedback \$1;
#X floatatom 1576 236 5 0 0 0 - - -, f 5;
#X floatatom 1513 236 5 0 0 0 - - -, f 5;
#X floatatom 1438 240 5 0 0 0 - - -, f 5;
#X obj 1577 214 hsl 64 15 0 1 0 0 empty empty empty -2 -8 0 10 -262144
-1 -1 0 1;
#X obj 1490 207 hsl 64 15 0 2000 0 0 empty empty empty -2 -8 0 10 -262144
-1 -1 0 1;
#X obj 1405 210 hsl 64 15 0 0.99 0 0 empty empty empty -2 -8 0 10 -262144
-1 -1 0 1;
#X floatatom 1572 159 5 0 0 0 - - -, f 5;
#X obj 1559 128 ctlin 11;
#X obj 1477 148 ctlin 12;
#X obj 1576 189 / 127;
#X obj 1388 127 ctlin 13;
#X floatatom 1396 156 5 0 0 0 - - -, f 5;
#X obj 1399 183 / 127;
#X obj 1483 177 * 10;
#X obj 1578 317 *~ 0.125;
#X obj 207 598 combFilter~;
#X msg 208 571 damping \$1;
#X msg 146 572 delay \$1;
#X msg 65 572 feedback \$1;
#X floatatom 206 543 5 0 0 0 - - -, f 5;
#X floatatom 143 543 5 0 0 0 - - -, f 5;
#X floatatom 68 547 5 0 0 0 - - -, f 5;
#X obj 207 521 hsl 64 15 0 1 0 0 empty empty empty -2 -8 0 10 -262144
-1 -1 0 1;
#X obj 120 514 hsl 64 15 0 2000 0 0 empty empty empty -2 -8 0 10 -262144
-1 -1 0 1;
#X obj 35 517 hsl 64 15 0 0.99 0 0 empty empty empty -2 -8 0 10 -262144
-1 -1 0 1;
#X floatatom 202 466 5 0 0 0 - - -, f 5;
#X obj 189 435 ctlin 11;
#X obj 107 455 ctlin 12;
#X obj 206 496 / 127;
#X obj 18 434 ctlin 13;
#X floatatom 26 463 5 0 0 0 - - -, f 5;
#X obj 29 490 / 127;
#X obj 113 484 * 10;
#X obj 208 624 *~ 0.125;
#X obj 487 597 combFilter~;
#X msg 488 570 damping \$1;
#X msg 426 571 delay \$1;
#X msg 345 571 feedback \$1;
#X floatatom 486 542 5 0 0 0 - - -, f 5;
#X floatatom 423 542 5 0 0 0 - - -, f 5;
#X floatatom 348 546 5 0 0 0 - - -, f 5;
#X obj 487 520 hsl 64 15 0 1 0 0 empty empty empty -2 -8 0 10 -262144
-1 -1 0 1;
#X obj 400 513 hsl 64 15 0 2000 0 0 empty empty empty -2 -8 0 10 -262144
-1 -1 0 1;
#X obj 315 516 hsl 64 15 0 0.99 0 0 empty empty empty -2 -8 0 10 -262144
-1 -1 0 1;
#X floatatom 482 465 5 0 0 0 - - -, f 5;
#X obj 469 434 ctlin 11;
#X obj 387 454 ctlin 12;
#X obj 486 495 / 127;
#X obj 298 433 ctlin 13;
#X floatatom 306 462 5 0 0 0 - - -, f 5;
#X obj 309 489 / 127;
#X obj 393 483 * 10;
#X obj 488 623 *~ 0.125;
#X obj 350 290 receive~ audioin;
#X obj 609 293 receive~ audioin;
#X obj 875 289 receive~ audioin;
#X obj 1209 294 receive~ audioin;
#X obj 1465 297 receive~ audioin;
#X obj 96 602 receive~ audioin;
#X obj 377 602 receive~ audioin;
#X obj 866 360 +~;
#X obj 1465 368 +~;
#X obj 606 426 +~;
#X obj 984 459 +~;
#X obj 336 685 +~;
#X obj 741 709 +~;
#X obj 389 886 stp_allpassApx~;
#X msg 436 861 delay \$1;
#X msg 375 861 gain \$1;
#X obj 358 810 hsl 64 15 0 1 0 0 empty empty empty -2 -8 0 10 -262144
-1 -1 0 1;
#X obj 439 808 hsl 64 15 0 1000 0 0 empty empty empty -2 -8 0 10 -262144
-1 -1 0 1;
#X floatatom 374 834 5 0 0 0 - - -, f 5;
#X floatatom 435 834 5 0 0 0 - - -, f 5;
#X floatatom 353 753 5 0 0 0 - - -, f 5;
#X obj 354 782 / 127;
#X obj 436 776 * 8;
#X obj 351 722 ctlin 4;
#X obj 435 746 ctlin 5;
#X obj 928 883 stp_allpassApx~;
#X msg 927 856 delay \$1;
#X msg 866 856 gain \$1;
#X obj 849 805 hsl 64 15 0 1 0 0 empty empty empty -2 -8 0 10 -262144
-1 -1 0 1;
#X obj 930 803 hsl 64 15 0 1000 0 0 empty empty empty -2 -8 0 10 -262144
-1 -1 0 1;
#X floatatom 865 829 5 0 0 0 - - -, f 5;
#X floatatom 926 829 5 0 0 0 - - -, f 5;
#X floatatom 844 748 5 0 0 0 - - -, f 5;
#X obj 845 777 / 127;
#X obj 927 771 * 8;
#X obj 842 717 ctlin 4;
#X obj 926 741 ctlin 5;
#X obj 1118 886 stp_allpassApx~;
#X msg 1117 859 delay \$1;
#X msg 1056 859 gain \$1;
#X obj 1039 808 hsl 64 15 0 1 0 0 empty empty empty -2 -8 0 10 -262144
-1 -1 0 1;
#X obj 1120 806 hsl 64 15 0 1000 0 0 empty empty empty -2 -8 0 10 -262144
-1 -1 0 1;
#X floatatom 1055 832 5 0 0 0 - - -, f 5;
#X floatatom 1116 832 5 0 0 0 - - -, f 5;
#X floatatom 1034 751 5 0 0 0 - - -, f 5;
#X obj 1035 780 / 127;
#X obj 1117 774 * 8;
#X obj 1032 720 ctlin 4;
#X obj 1116 744 ctlin 5;
#X obj 1257 877 receive~ audioin;
#X obj 736 743 send~ combsum;
#X obj 108 890 receive~ combsum;
#X connect 0 0 1 0;
#X connect 1 0 2 0;
#X connect 2 0 40 0;
#X connect 4 0 0 0;
#X connect 5 0 2 0;
#X connect 6 0 37 0;
#X connect 7 0 6 0;
#X connect 8 0 6 0;
#X connect 9 0 6 0;
#X connect 10 0 7 0;
#X connect 11 0 8 0;
#X connect 12 0 9 0;
#X connect 13 0 10 0;
#X connect 14 0 11 0;
#X connect 15 0 12 0;
#X connect 16 0 19 0;
#X connect 17 0 16 0;
#X connect 18 0 36 0;
#X connect 19 0 13 0;
#X connect 20 0 21 0;
#X connect 21 0 22 0;
#X connect 22 0 15 0;
#X connect 23 0 184 0;
#X connect 24 0 188 0;
#X connect 25 0 24 0;
#X connect 26 0 24 0;
#X connect 27 0 29 0;
#X connect 28 0 30 0;
#X connect 29 0 26 0;
#X connect 30 0 25 0;
#X connect 31 0 32 0;
#X connect 32 0 27 0;
#X connect 33 0 28 0;
#X connect 34 0 31 0;
#X connect 35 0 33 0;
#X connect 36 0 14 0;
#X connect 37 0 23 0;
#X connect 38 0 3 0;
#X connect 38 0 3 1;
#X connect 39 0 38 2;
#X connect 41 0 6 0;
#X connect 42 0 60 0;
#X connect 43 0 42 0;
#X connect 44 0 42 0;
#X connect 45 0 42 0;
#X connect 46 0 43 0;
#X connect 47 0 44 0;
#X connect 48 0 45 0;
#X connect 49 0 46 0;
#X connect 50 0 47 0;
#X connect 51 0 48 0;
#X connect 52 0 55 0;
#X connect 53 0 52 0;
#X connect 54 0 59 0;
#X connect 55 0 49 0;
#X connect 56 0 57 0;
#X connect 57 0 58 0;
#X connect 58 0 51 0;
#X connect 59 0 50 0;
#X connect 60 0 23 0;
#X connect 61 0 79 0;
#X connect 62 0 61 0;
#X connect 63 0 61 0;
#X connect 64 0 61 0;
#X connect 65 0 62 0;
#X connect 66 0 63 0;
#X connect 67 0 64 0;
#X connect 68 0 65 0;
#X connect 69 0 66 0;
#X connect 70 0 67 0;
#X connect 71 0 74 0;
#X connect 72 0 71 0;
#X connect 73 0 78 0;
#X connect 74 0 68 0;
#X connect 75 0 76 0;
#X connect 76 0 77 0;
#X connect 77 0 70 0;
#X connect 78 0 69 0;
#X connect 79 0 182 0;
#X connect 80 0 98 0;
#X connect 81 0 80 0;
#X connect 82 0 80 0;
#X connect 83 0 80 0;
#X connect 84 0 81 0;
#X connect 85 0 82 0;
#X connect 86 0 83 0;
#X connect 87 0 84 0;
#X connect 88 0 85 0;
#X connect 89 0 86 0;
#X connect 90 0 93 0;
#X connect 91 0 90 0;
#X connect 92 0 97 0;
#X connect 93 0 87 0;
#X connect 94 0 95 0;
#X connect 95 0 96 0;
#X connect 96 0 89 0;
#X connect 97 0 88 0;
#X connect 98 0 182 1;
#X connect 99 0 117 0;
#X connect 100 0 99 0;
#X connect 101 0 99 0;
#X connect 102 0 99 0;
#X connect 103 0 100 0;
#X connect 104 0 101 0;
#X connect 105 0 102 0;
#X connect 106 0 103 0;
#X connect 107 0 104 0;
#X connect 108 0 105 0;
#X connect 109 0 112 0;
#X connect 110 0 109 0;
#X connect 111 0 116 0;
#X connect 112 0 106 0;
#X connect 113 0 114 0;
#X connect 114 0 115 0;
#X connect 115 0 108 0;
#X connect 116 0 107 0;
#X connect 117 0 183 0;
#X connect 118 0 136 0;
#X connect 119 0 118 0;
#X connect 120 0 118 0;
#X connect 121 0 118 0;
#X connect 122 0 119 0;
#X connect 123 0 120 0;
#X connect 124 0 121 0;
#X connect 125 0 122 0;
#X connect 126 0 123 0;
#X connect 127 0 124 0;
#X connect 128 0 131 0;
#X connect 129 0 128 0;
#X connect 130 0 135 0;
#X connect 131 0 125 0;
#X connect 132 0 133 0;
#X connect 133 0 134 0;
#X connect 134 0 127 0;
#X connect 135 0 126 0;
#X connect 136 0 183 1;
#X connect 137 0 155 0;
#X connect 138 0 137 0;
#X connect 139 0 137 0;
#X connect 140 0 137 0;
#X connect 141 0 138 0;
#X connect 142 0 139 0;
#X connect 143 0 140 0;
#X connect 144 0 141 0;
#X connect 145 0 142 0;
#X connect 146 0 143 0;
#X connect 147 0 150 0;
#X connect 148 0 147 0;
#X connect 149 0 154 0;
#X connect 150 0 144 0;
#X connect 151 0 152 0;
#X connect 152 0 153 0;
#X connect 153 0 146 0;
#X connect 154 0 145 0;
#X connect 155 0 186 0;
#X connect 156 0 174 0;
#X connect 157 0 156 0;
#X connect 158 0 156 0;
#X connect 159 0 156 0;
#X connect 160 0 157 0;
#X connect 161 0 158 0;
#X connect 162 0 159 0;
#X connect 163 0 160 0;
#X connect 164 0 161 0;
#X connect 165 0 162 0;
#X connect 166 0 169 0;
#X connect 167 0 166 0;
#X connect 168 0 173 0;
#X connect 169 0 163 0;
#X connect 170 0 171 0;
#X connect 171 0 172 0;
#X connect 172 0 165 0;
#X connect 173 0 164 0;
#X connect 174 0 186 1;
#X connect 175 0 42 0;
#X connect 176 0 61 0;
#X connect 177 0 80 0;
#X connect 178 0 99 0;
#X connect 179 0 118 0;
#X connect 180 0 137 0;
#X connect 181 0 156 0;
#X connect 182 0 184 1;
#X connect 183 0 185 1;
#X connect 184 0 185 0;
#X connect 185 0 187 1;
#X connect 186 0 187 0;
#X connect 187 0 225 0;
#X connect 188 0 200 0;
#X connect 189 0 188 0;
#X connect 190 0 188 0;
#X connect 191 0 193 0;
#X connect 192 0 194 0;
#X connect 193 0 190 0;
#X connect 194 0 189 0;
#X connect 195 0 196 0;
#X connect 196 0 191 0;
#X connect 197 0 192 0;
#X connect 198 0 195 0;
#X connect 199 0 197 0;
#X connect 200 0 212 0;
#X connect 201 0 200 0;
#X connect 202 0 200 0;
#X connect 203 0 205 0;
#X connect 204 0 206 0;
#X connect 205 0 202 0;
#X connect 206 0 201 0;
#X connect 207 0 208 0;
#X connect 208 0 203 0;
#X connect 209 0 204 0;
#X connect 210 0 207 0;
#X connect 211 0 209 0;
#X connect 212 0 38 0;
#X connect 213 0 212 0;
#X connect 214 0 212 0;
#X connect 215 0 217 0;
#X connect 216 0 218 0;
#X connect 217 0 214 0;
#X connect 218 0 213 0;
#X connect 219 0 220 0;
#X connect 220 0 215 0;
#X connect 221 0 216 0;
#X connect 222 0 219 0;
#X connect 223 0 221 0;
#X connect 224 0 38 1;
#X connect 226 0 24 0;
