#N canvas 634 162 687 346 10;
#X obj 151 101 unpackOSC;
#X obj 30 279 send c1;
#X obj 79 279 send c2;
#X obj 129 279 send c3;
#X obj 178 279 send c4;
#X obj 227 278 send c5;
#X obj 275 277 send c6;
#X obj 329 279 send c7;
#X obj 379 282 send c8;
#X obj 539 240 routeOSC /1 /2 /3 /4;
#X obj 444 290 send all1;
#X obj 502 290 send all2;
#X obj 565 289 send all3;
#X obj 626 291 send all4;
#X obj 142 54 udpreceive 4002;
#X obj 110 150 routeOSC /1 /2 /3 /4 /5 /6 /7 /8 /all /crossfade;
#X obj 484 200 send crossfade;
#X connect 0 0 15 0;
#X connect 9 0 10 0;
#X connect 9 1 11 0;
#X connect 9 2 12 0;
#X connect 9 3 13 0;
#X connect 14 0 0 0;
#X connect 15 0 1 0;
#X connect 15 1 2 0;
#X connect 15 2 3 0;
#X connect 15 3 4 0;
#X connect 15 4 5 0;
#X connect 15 5 6 0;
#X connect 15 6 7 0;
#X connect 15 7 8 0;
#X connect 15 8 9 0;
#X connect 15 9 16 0;
