#N canvas 634 162 687 346 10;
#X obj 142 54 udpreceive 4001;
#X obj 110 150 routeOSC /1 /2 /3 /4 /5 /6 /7 /8 /all;
#X obj 253 94 routeOSC /1/feedback;
#X obj 151 101 unpackOSC;
#X obj 82 218 send c1;
#X obj 148 227 send c2;
#X obj 207 235 send c3;
#X obj 266 279 send c4;
#X obj 277 238 send c5;
#X obj 345 252 send c6;
#X obj 447 266 send c7;
#X obj 525 259 send c8;
#X obj 82 218 send c1;
#X obj 495 190 routeOSC /1 /2 /3 /4;
#X obj 448 211 send all1;
#X obj 510 222 send all2;
#X obj 600 227 send all3;
#X obj 601 261 send all4;
#X obj 66 124 print;
#X connect 0 0 3 0;
#X connect 0 0 18 0;
#X connect 1 0 4 0;
#X connect 1 1 5 0;
#X connect 1 2 6 0;
#X connect 1 3 7 0;
#X connect 1 4 8 0;
#X connect 1 5 9 0;
#X connect 1 6 10 0;
#X connect 1 7 11 0;
#X connect 1 8 13 0;
#X connect 3 0 1 0;
#X connect 13 0 14 0;
#X connect 13 1 15 0;
#X connect 13 2 16 0;
#X connect 13 3 17 0;
