#N canvas 663 189 450 300 10;
#X obj 37 37 inlet;
#X obj 45 225 outlet;
#X obj 105 227 outlet;
#X obj 159 229 outlet;
#X obj 70 119 routeOSC /feedback /delay /damping /on;
#X obj 219 230 outlet;
#X connect 0 0 4 0;
#X connect 4 0 1 0;
#X connect 4 1 2 0;
#X connect 4 2 3 0;
#X connect 4 3 5 0;
